<svg width="44" height="44" viewBox="0 0 44 44" fill="none" xmlns="http://www.w3.org/2000/svg">
<path fill-rule="evenodd" clip-rule="evenodd" d="M36 12.5C40.1406 12.5 43.5 15.8594 43.5 20V36C43.5 40.1406 40.1406 43.5 36 43.5H20C15.8594 43.5 12.5 40.1406 12.5 36V20C12.5 15.8594 15.8594 12.5 20 12.5H36ZM20 15.5C17.5156 15.5 15.5 17.5156 15.5 20V36C15.5 38.4844 17.5156 40.5 20 40.5H36C38.4844 40.5 40.5 38.4844 40.5 36V20C40.5 17.5156 38.4844 15.5 36 15.5H20Z" fill="#A0A5C0"/>
<path d="M24 0.5C27.2695 0.5 30.043 2.5898 31.0742 5.5C31.3476 6.28125 30.9375 7.1367 30.1601 7.4141C29.3789 7.69144 28.5195 7.28129 28.2421 6.50004C27.625 4.75004 25.9569 3.50004 23.9999 3.50004H7.99995C5.51555 3.50004 3.49995 5.51564 3.49995 8.00004V24C3.49995 25.957 4.74995 27.625 6.49995 28.2422C7.2812 28.5196 7.69135 29.3789 7.41401 30.1602C7.13667 30.9376 6.28121 31.3477 5.49991 31.0743C2.58971 30.0431 0.499908 27.2696 0.499908 24.0001V8.0001C0.499908 3.8595 3.85931 0.500099 7.99991 0.500099L24 0.5Z" fill="#A0A5C0"/>
</svg>
