<svg width="535" height="175" viewBox="0 0 535 175" fill="none" xmlns="http://www.w3.org/2000/svg">
<path d="M39.296 130.896C37.3333 130.896 35.84 130.384 34.816 129.36C33.792 128.251 33.28 126.715 33.28 124.752V49.872H5.24797C3.62664 49.872 2.34664 49.4453 1.40797 48.592C0.469306 47.6533 -2.78354e-05 46.3733 -2.78354e-05 44.752C-2.78354e-05 43.1307 0.469306 41.8933 1.40797 41.04C2.34664 40.1867 3.62664 39.76 5.24797 39.76H73.216C74.9226 39.76 76.2026 40.1867 77.056 41.04C77.9946 41.8933 78.464 43.1307 78.464 44.752C78.464 46.3733 77.9946 47.6533 77.056 48.592C76.2026 49.4453 74.9226 49.872 73.216 49.872H45.184V124.752C45.184 126.715 44.672 128.251 43.648 129.36C42.7093 130.384 41.2586 130.896 39.296 130.896ZM100.247 130.896C98.6256 130.896 97.2176 130.512 96.023 129.744C94.8283 128.891 93.8896 127.525 93.207 125.648L74.135 74.832C73.5376 73.2107 73.367 71.8027 73.623 70.608C73.879 69.4133 74.4763 68.4747 75.415 67.792C76.3536 67.1093 77.591 66.768 79.127 66.768C80.5776 66.768 81.7296 67.1093 82.583 67.792C83.4363 68.4747 84.1616 69.712 84.759 71.504L102.167 120.656H99.095L117.015 71.248C117.612 69.712 118.38 68.6027 119.319 67.92C120.343 67.152 121.58 66.768 123.031 66.768C124.567 66.768 125.847 67.152 126.871 67.92C127.895 68.6027 128.62 69.712 129.047 71.248L146.711 120.656H143.767L161.431 71.248C162.028 69.5413 162.796 68.3893 163.735 67.792C164.674 67.1093 165.826 66.768 167.191 66.768C168.727 66.768 169.879 67.152 170.647 67.92C171.415 68.688 171.842 69.712 171.927 70.992C172.098 72.1867 171.927 73.4667 171.415 74.832L152.343 125.648C151.746 127.44 150.807 128.763 149.527 129.616C148.332 130.469 146.924 130.896 145.303 130.896C143.682 130.896 142.231 130.469 140.951 129.616C139.756 128.763 138.818 127.44 138.135 125.648L119.831 75.472H125.719L107.415 125.648C106.732 127.44 105.794 128.763 104.599 129.616C103.404 130.469 101.954 130.896 100.247 130.896ZM213.903 131.152C207.162 131.152 201.359 129.872 196.495 127.312C191.716 124.667 188.004 120.955 185.359 116.176C182.714 111.312 181.391 105.595 181.391 99.024C181.391 92.5387 182.671 86.864 185.231 82C187.876 77.136 191.46 73.3387 195.983 70.608C200.591 67.8773 205.839 66.512 211.727 66.512C215.908 66.512 219.663 67.2373 222.991 68.688C226.404 70.0533 229.306 72.0587 231.695 74.704C234.084 77.3493 235.876 80.592 237.071 84.432C238.351 88.1867 238.991 92.4533 238.991 97.232C238.991 98.5973 238.564 99.664 237.711 100.432C236.943 101.115 235.791 101.456 234.255 101.456H190.479V94.032H231.311L229.135 95.824C229.135 91.3867 228.452 87.632 227.087 84.56C225.807 81.4027 223.887 79.0133 221.327 77.392C218.852 75.7707 215.738 74.96 211.983 74.96C207.887 74.96 204.388 75.9413 201.487 77.904C198.586 79.7813 196.367 82.4693 194.831 85.968C193.295 89.3813 192.527 93.3493 192.527 97.872V98.64C192.527 106.32 194.362 112.123 198.031 116.048C201.7 119.973 206.991 121.936 213.903 121.936C216.634 121.936 219.407 121.595 222.223 120.912C225.124 120.229 227.898 118.992 230.543 117.2C231.823 116.432 232.975 116.091 233.999 116.176C235.108 116.176 236.004 116.517 236.687 117.2C237.37 117.797 237.796 118.565 237.967 119.504C238.138 120.357 238.01 121.296 237.583 122.32C237.156 123.344 236.346 124.24 235.151 125.008C232.335 126.971 228.964 128.507 225.039 129.616C221.199 130.64 217.487 131.152 213.903 131.152ZM259.238 130.896C257.446 130.896 256.038 130.384 255.014 129.36C253.99 128.336 253.478 126.843 253.478 124.88V72.656C253.478 70.6933 253.99 69.2427 255.014 68.304C256.038 67.28 257.446 66.768 259.238 66.768C261.03 66.768 262.395 67.28 263.334 68.304C264.358 69.2427 264.87 70.6933 264.87 72.656V83.152L263.462 81.232C265.254 76.368 268.155 72.6987 272.166 70.224C276.262 67.7493 280.913 66.512 286.118 66.512C291.153 66.512 295.291 67.408 298.534 69.2C301.777 70.992 304.209 73.7227 305.83 77.392C307.451 81.0613 308.262 85.712 308.262 91.344V124.88C308.262 126.843 307.75 128.336 306.726 129.36C305.787 130.384 304.379 130.896 302.502 130.896C300.625 130.896 299.174 130.384 298.15 129.36C297.126 128.336 296.614 126.843 296.614 124.88V91.984C296.614 86.4373 295.547 82.384 293.414 79.824C291.281 77.264 287.867 75.984 283.174 75.984C277.713 75.984 273.318 77.6907 269.99 81.104C266.747 84.432 265.126 88.9547 265.126 94.672V124.88C265.126 128.891 263.163 130.896 259.238 130.896ZM352.584 131.152C347.549 131.152 343.325 130.256 339.912 128.464C336.584 126.672 334.067 124.069 332.36 120.656C330.739 117.243 329.928 113.061 329.928 108.112V76.624H321.736C320.2 76.624 319.005 76.24 318.152 75.472C317.299 74.6187 316.872 73.5093 316.872 72.144C316.872 70.6933 317.299 69.584 318.152 68.816C319.005 68.048 320.2 67.664 321.736 67.664H329.928V53.712C329.928 51.7493 330.44 50.2987 331.464 49.36C332.488 48.336 333.939 47.824 335.816 47.824C337.693 47.824 339.101 48.336 340.04 49.36C341.064 50.2987 341.576 51.7493 341.576 53.712V67.664H357.064C358.685 67.664 359.923 68.048 360.776 68.816C361.629 69.584 362.056 70.6933 362.056 72.144C362.056 73.5093 361.629 74.6187 360.776 75.472C359.923 76.24 358.685 76.624 357.064 76.624H341.576V107.088C341.576 111.781 342.557 115.323 344.52 117.712C346.483 120.101 349.725 121.296 354.248 121.296C355.869 121.296 357.235 121.168 358.344 120.912C359.453 120.571 360.435 120.4 361.288 120.4C362.056 120.315 362.696 120.571 363.208 121.168C363.805 121.765 364.104 122.875 364.104 124.496C364.104 125.691 363.891 126.8 363.464 127.824C363.123 128.763 362.397 129.403 361.288 129.744C360.264 130.085 358.899 130.384 357.192 130.64C355.485 130.981 353.949 131.152 352.584 131.152ZM480.28 130C478.403 130 476.909 129.445 475.8 128.336C474.776 127.227 474.264 125.733 474.264 123.856V45.264C474.264 43.3013 474.776 41.808 475.8 40.784C476.824 39.76 478.275 39.248 480.152 39.248C482.115 39.248 483.608 39.76 484.632 40.784C485.656 41.808 486.168 43.3013 486.168 45.264V119.76H526.872C528.664 119.76 529.987 120.187 530.84 121.04C531.779 121.893 532.248 123.131 532.248 124.752C532.248 126.459 531.779 127.781 530.84 128.72C529.987 129.573 528.664 130 526.872 130H480.28Z" fill="#00A19A"/>
<path d="M415.234 97.406C416.029 96.2472 417.739 96.2472 418.534 97.406L439.419 127.869C440.329 129.196 439.379 131 437.77 131H395.998C394.389 131 393.439 129.196 394.349 127.869L415.234 97.406Z" fill="#00A19A"/>
<path d="M415.234 72.594C416.029 73.7528 417.739 73.7528 418.534 72.594L439.419 42.1309C440.329 40.8037 439.379 39 437.77 39H395.998C394.389 39 393.439 40.8037 394.349 42.1309L415.234 72.594Z" fill="#00A19A"/>
<path d="M405.156 85.3474C405.852 84.5839 405.852 83.4161 405.156 82.6526L379.862 54.9063C378.631 53.5563 376.384 54.427 376.384 56.2537V111.746C376.384 113.573 378.631 114.444 379.862 113.094L405.156 85.3474Z" fill="#00A19A"/>
<path d="M428.612 86.3474C427.916 85.5839 427.916 84.4161 428.612 83.6526L453.906 55.9063C455.137 54.5563 457.384 55.427 457.384 57.2537V112.746C457.384 114.573 455.137 115.444 453.906 114.094L428.612 86.3474Z" fill="#00A19A"/>
</svg>
