<svg width="75" height="75" viewBox="0 0 75 75" fill="none" xmlns="http://www.w3.org/2000/svg">
<path d="M74.3986 13.836L61.1641 0.602143C60.9736 0.411266 60.7473 0.259831 60.4982 0.156508C60.2491 0.053184 59.982 0 59.7124 0C59.4427 0 59.1757 0.053184 58.9266 0.156508C58.6775 0.259831 58.4512 0.411266 58.2607 0.602143L5.75789 53.1022C5.51025 53.3523 5.33111 53.662 5.2377 54.0014L5.23125 54.0247L0.0761331 72.3965C-0.0220392 72.7466 -0.025326 73.1165 0.0666097 73.4683C0.158545 73.8201 0.342395 74.1411 0.599307 74.3984C0.856218 74.6557 1.17695 74.8401 1.5286 74.9326C1.88026 75.0251 2.25019 75.0224 2.60046 74.9247L20.6659 69.857C21.1175 69.8015 21.5375 69.5962 21.8587 69.2739L21.8773 69.2538L21.8942 69.2393L74.397 16.7392C74.588 16.5489 74.7396 16.3227 74.843 16.0737C74.9465 15.8246 74.9998 15.5576 75 15.288C75.0001 15.0183 74.9471 14.7513 74.8439 14.5021C74.7407 14.253 74.5894 14.0266 74.3986 13.836ZM40.8041 44.5264L37.0894 40.8078L59.2801 18.6207L62.9972 22.3401L40.8041 44.5264ZM20.4079 64.9207L10.0767 54.5901L27.5776 37.0901L37.9056 47.4272L20.4079 64.9207ZM34.1909 37.9094L30.4721 34.1949L52.6596 12.003L56.3759 15.7199L34.1909 37.9094ZM8.22173 58.5376L16.4601 66.7756L5.00785 69.9893L8.22173 58.5376ZM65.8974 19.4368L55.563 9.10295L59.714 4.95214L70.0484 15.286L65.8974 19.4368Z" fill="#E6E8F4"/>
</svg>
