<svg width="32" height="40" viewBox="0 0 32 40" fill="none" xmlns="http://www.w3.org/2000/svg">
<path d="M29.71 28.29L22.3 20.89C24.2098 18.6168 25.1682 15.6942 24.9754 12.7315C24.7826 9.76888 23.4534 6.99506 21.2651 4.98863C19.0768 2.9822 16.1984 1.89808 13.2301 1.96239C10.2619 2.02671 7.43315 3.23449 5.33382 5.33382C3.23449 7.43315 2.02671 10.2619 1.96239 13.2301C1.89808 16.1984 2.9822 19.0768 4.98863 21.2651C6.99506 23.4534 9.76888 24.7826 12.7315 24.9754C15.6942 25.1682 18.6168 24.2098 20.89 22.3L28.29 29.71C28.383 29.8037 28.4936 29.8781 28.6154 29.9289C28.7373 29.9797 28.868 30.0058 29 30.0058C29.132 30.0058 29.2627 29.9797 29.3846 29.9289C29.5064 29.8781 29.617 29.8037 29.71 29.71C29.8037 29.617 29.8781 29.5064 29.9289 29.3846C29.9797 29.2627 30.0058 29.132 30.0058 29C30.0058 28.868 29.9797 28.7373 29.9289 28.6154C29.8781 28.4936 29.8037 28.383 29.71 28.29ZM3.99999 13.5C3.99999 11.6211 4.55716 9.78434 5.60103 8.22208C6.64491 6.65981 8.1286 5.44217 9.8645 4.72314C11.6004 4.00411 13.5105 3.81597 15.3534 4.18253C17.1962 4.54909 18.8889 5.45388 20.2175 6.78248C21.5461 8.11108 22.4509 9.80382 22.8175 11.6466C23.184 13.4895 22.9959 15.3996 22.2768 17.1355C21.5578 18.8714 20.3402 20.3551 18.7779 21.399C17.2156 22.4428 15.3789 23 13.5 23C10.9813 22.9973 8.56643 21.9956 6.7854 20.2146C5.00438 18.4336 4.00264 16.0187 3.99999 13.5Z" fill="#6B728E"/>
</svg>
