<svg width="54" height="63" viewBox="0 0 54 63" fill="none" xmlns="http://www.w3.org/2000/svg">
<path d="M11 63H43C44.052 63 44.924 62.186 44.995 61.136L47.995 17.136C48.033 16.583 47.84 16.039 47.462 15.635C47.083 15.23 46.554 15 46 15H8.00002C7.44602 15 6.91702 15.23 6.53802 15.635C6.16002 16.04 5.96702 16.584 6.00502 17.136L9.00502 61.136C9.07602 62.186 9.94802 63 11 63ZM43.859 19L41.131 59H12.868L10.14 19H43.859Z" fill="#E6E8F4"/>
<path d="M27 53C28.104 53 29 52.104 29 51V27.945C29 26.841 28.104 25.945 27 25.945C25.896 25.945 25 26.841 25 27.945V51C25 52.104 25.896 53 27 53Z" fill="#E6E8F4"/>
<path d="M34.958 52.935C35.027 52.942 35.096 52.945 35.163 52.945C36.177 52.945 37.046 52.178 37.15 51.148L39.489 28.203C39.601 27.104 38.801 26.123 37.703 26.011C36.59 25.903 35.622 26.699 35.511 27.798L33.172 50.743C33.06 51.841 33.859 52.822 34.958 52.935Z" fill="#E6E8F4"/>
<path d="M18.498 52.967C18.554 52.967 18.609 52.965 18.666 52.96C19.767 52.868 20.585 51.902 20.493 50.801L18.58 27.813C18.488 26.712 17.525 25.896 16.421 25.986C15.32 26.078 14.502 27.044 14.594 28.145L16.507 51.133C16.594 52.177 17.468 52.967 18.498 52.967Z" fill="#E6E8F4"/>
<path d="M2.5 13H15.5H38.5H38.52H51.5C52.604 13 53.5 12.104 53.5 11C53.5 9.896 52.604 9 51.5 9H39.942L37.398 1.368C37.125 0.551 36.361 0 35.5 0H18.5C17.639 0 16.875 0.551 16.603 1.368L14.058 9H2.5C1.396 9 0.5 9.896 0.5 11C0.5 12.104 1.396 13 2.5 13ZM19.941 4H34.058L35.725 9H18.274L19.941 4Z" fill="#E6E8F4"/>
</svg>
